<?xml version="1.0" encoding="utf-8"?>
<!-- Generator: Adobe Illustrator 21.1.0, SVG Export Plug-In . SVG Version: 6.00 Build 0)  -->
<svg version="1.1" id="Layer_1" xmlns="http://www.w3.org/2000/svg" xmlns:xlink="http://www.w3.org/1999/xlink" x="0px" y="0px"
	 viewBox="0 0 20 20" style="enable-background:new 0 0 20 20;" xml:space="preserve">
<style type="text/css">
	.st0{fill:#E32219;}
	.st1{fill:#FFFFFF;}
	.st2{fill:none;stroke:#FFFFFF;stroke-width:0.1;stroke-miterlimit:10;}
</style>
<path class="st0" d="M16,0H4C1.8,0,0,1.8,0,4v12c0,2.2,1.8,4,4,4h12c2.2,0,4-1.8,4-4V4C20,1.8,18.2,0,16,0z"/>
<path class="st1" d="M5.9,10.3c-0.1,0-0.2,0.1-0.2,0.1l-0.4,0.7L4.9,9.8c0-0.1-0.1-0.2-0.2-0.2c-0.1,0-0.2,0.1-0.2,0.2l-0.3,0.7
	L3.7,7.6c0-0.1-0.1-0.2-0.2-0.2c-0.1,0-0.2,0.1-0.2,0.2l-0.4,3.3L2.4,9.2C2.4,9.1,2.3,9,2.2,9C2.1,9,2,9,1.9,9.1l-0.6,1.2H0.5v0.5h1
	c0.1,0,0.2-0.1,0.2-0.1L2.1,10l0.5,2.5c0,0.1,0.1,0.2,0.2,0.2c0,0,0,0,0,0c0.1,0,0.2-0.1,0.2-0.2l0.4-3.2l0.3,2.1
	c0,0.1,0.1,0.2,0.2,0.2c0.1,0,0.2,0,0.3-0.2l0.4-0.9l0.4,1.2c0,0.1,0.1,0.2,0.2,0.2c0.1,0,0.2,0,0.2-0.1l0.6-1h1.1v-0.5H5.9z"/>
<path class="st1" d="M11.9,5.3l-1,0.2L9.2,4.6l0.6-0.7l1.3,0.4L11.9,5.3z M13.4,3.6v0.1L12.4,4l-1,0.1L10,3.7L9.7,3.6h0.2
	c0-0.4-0.1-0.7-0.1-1.1h0c0,0,0-0.3,0-0.4c0-0.1-0.1-0.2-0.3-0.3C9.3,1.7,9.3,1.7,9.2,1.7C9.1,1.7,9.1,1.8,9.1,2
	C9.4,2,9.4,2.4,9.4,2.4C9.4,2.6,9.3,3,9,3.1C8.5,3.2,8.6,2.3,8.9,2c0-0.3,0.1-0.5,0.3-0.5c0.1,0,0.2,0,0.3,0.1
	c0.1,0,0.1,0.1,0.1,0.1c0-0.1,0-0.2,0-0.3c0-0.2,0-0.4,0.2-0.6c0.1-0.1,0.2-0.1,0.3-0.1c0.3,0,0.4,0.2,0.5,0.5c0.1,0,0.3-0.1,0.4,0
	c0.4,0.1,0.6,0.8,0.5,1.1c-0.4,0.6-1.4-0.5-1.1-0.9c0,0,0-0.1,0.1-0.1c-0.1-0.2-0.2-0.4-0.4-0.4c0,0-0.1,0-0.2,0.1
	C9.9,1.1,9.9,1.3,9.9,1.5c0,0.1,0,0.3,0,0.4c0,0.1,0,0.1,0,0.2c0,0.1,0,0.2,0,0.4c0,0.4,0.2,0.7,0.2,1.1L13.4,3.6z M10.6,1.4
	l0.8,0.8c-0.1-0.6-0.6-0.9-0.6-0.9L10.6,1.4z M9,2.1L8.9,2.2c0,0-0.1,0.5,0,0.7L9,2.1z M8.3,4.9l0.6-0.4l0.6-0.8L9.4,3.6H8L7.7,4.1
	L8.3,4.9z M9.1,4.8L8,5.5l0.1,0.2h2.5l0,0L9.1,4.8z M6.8,3.6v0.8l0.7-0.4l0.2-0.5H6.8z M11.5,4.4l0.7,1l1.2,0.3V4.5l-0.9-0.3
	L11.5,4.4z M13.4,4.3V3.9l-0.7,0.2L13.4,4.3z M7.5,4.3L6.8,4.7v1h0.5l0.8-0.6L7.5,4.3z M11.2,5.7h1.6l-0.8-0.2L11.2,5.7z"/>
<path class="st1" d="M9.7,16.1c0.1,0,0.2,0.1,0.3,0.1c0,0,0.1,0,0.1,0c0.4-0.1,0.7-0.7,0.7-1.3c0-0.2,0-0.4-0.2-0.6
	c-0.1-0.1-0.3-0.2-0.4-0.2c-0.3-0.1-1.5-0.3-1.7-0.3c-0.4,0-0.7,0.5-0.7,0.8c-0.1,0.3,0,0.9,0.5,1.1L9.7,16.1z M8.5,15.4l0-0.4
	c0,0,0.1,0.1,0.1,0l0.2,0.5C8.8,15.6,8.5,15.5,8.5,15.4z M9.7,15.9c-0.1-0.1-0.2-0.3-0.2-0.6c0-0.4,0.2-1.1,0.6-1.1l0,0
	c0.1,0,0.3,0,0.3,0.1c0.2,0.2,0.2,0.4,0.2,0.5c0,0.5-0.2,1.1-0.5,1.1C9.9,16,9.8,16,9.7,15.9z M8.8,14.3C8.9,14.2,9,14.9,8.9,15
	c0,0-0.3-0.1-0.3-0.1c0,0,0-0.1-0.1-0.2L8.8,14.3z M8.5,14.7c0.1,0,0.1,0.1,0.1,0.2c0,0.1,0,0.1-0.1,0.1c-0.1,0-0.1-0.2-0.1-0.2
	C8.5,14.9,8.5,14.7,8.5,14.7z M8.4,14.1l0.1,0.5c0,0-0.1,0.1,0,0.2l-0.3-0.1C8.1,14.6,8.3,14.1,8.4,14.1z M12.6,16.1
	c0,0.2-0.3,0.3-0.5,0.5c-0.2,0.1-0.5,0.3-1,0.6c-0.5,0.3-1.1,0.5-1.5,0.4c-0.4-0.1-0.7-0.1-1,0.1c-0.3,0.2-0.6,0-0.7-0.2
	c0-0.2,0.7-0.7,1-0.6c0.3,0,0.8-0.3,1.1-0.3c0.1,0,0.3,0,0.6-0.1c0.3-0.1,0.4-0.6,0.6-0.6c0.2-0.1,0.5,0,0.6,0.1
	C11.9,15.7,12.6,15.9,12.6,16.1z"/>
<path class="st1" d="M13.7,8.1C14,7.8,15,7.6,16,7.6c1.1,0,2.1,0.2,2.3,0.5c-0.2,0.3-1.7,0.5-2.3,0.5C15.4,8.5,13.8,8.4,13.7,8.1z
	 M18.3,8.2C18,8.5,17,8.7,16,8.7c-1.1,0-2.1-0.1-2.3-0.5c0,0-0.1,0.9,1.4,1.4c1,0.3,0.5,0.9,0.5,0.9s-1.1,1.1-0.2,1.4
	c0.6,0.2,0.5,0.5,0.5,0.6c0.6-0.7-1.1-0.9,0.8-1.7c0.9-0.4,1.1-0.7,0.8-1.1C17,9.2,18.3,9,18.3,8.2z"/>
<line class="st2" x1="3.7" y1="3.7" x2="16.2" y2="16.5"/>
<line class="st2" x1="3.6" y1="16.4" x2="16.3" y2="3.8"/>
</svg>
