<?xml version="1.0" encoding="utf-8"?>
<!-- Generator: Adobe Illustrator 21.1.0, SVG Export Plug-In . SVG Version: 6.00 Build 0)  -->
<svg version="1.0" id="Layer_1" xmlns="http://www.w3.org/2000/svg" xmlns:xlink="http://www.w3.org/1999/xlink" x="0px" y="0px"
	 viewBox="0 0 20 20" style="enable-background:new 0 0 20 20;" xml:space="preserve">
<style type="text/css">
	.st0{fill:#E32219;}
	.st1{fill:#FFFFFF;}
</style>
<path class="st0" d="M16,0H4C1.8,0,0,1.8,0,4v12c0,2.2,1.8,4,4,4h12c2.2,0,4-1.8,4-4V4C20,1.8,18.2,0,16,0z M19,18
	c0,0.1,0,0.2,0,0.3h-0.5c-0.3-0.1-0.8-0.4-1-1c-0.2-0.5-0.4-1.4,0.5-1.5c0,0-1.1-1.3-2,0.5c-0.7,1.4-1.7,1.9-2,2h-0.5
	c-0.3-0.1-0.8-0.4-1-1c-0.2-0.5-0.4-1.4,0.5-1.5c0,0-1.1-1.3-2,0.5c-0.7,1.4-1.2,1.9-1.5,2H9c-0.3-0.1-0.8-0.4-1-1
	c-0.2-0.5-0.4-1.4,0.5-1.5c0,0-1.1-1.3-2,0.5c-0.7,1.4-1.2,1.9-1.5,2H4.5c-0.3-0.1-0.8-0.4-1-1c-0.2-0.5-0.4-1.4,0.5-1.5
	c0,0-1.1-1.3-2,0.5c-0.3,0.6-0.7,1-1,1.3v-3c0.3-0.3,0.7-0.8,1-1.3c0.9-1.8,2-0.5,2-0.5c-0.9,0.1-0.7,1-0.5,1.5c0.2,0.6,0.7,0.9,1,1
	H5c0.3-0.1,0.8-0.7,1.5-2c0.9-1.8,2-0.5,2-0.5c-0.9,0.1-0.7,1-0.5,1.5c0.2,0.6,0.7,0.9,1,1h0.5V9.8L9,10.3L8.5,9.8l4.8-4l4.7,4
	l-0.5,0.5L17,9.8v2.6v2.9h2V18z"/>
<path class="st1" d="M1.4,5.6c0.5-0.4,2.2-0.8,4-0.8c2,0,3.7,0.4,4,0.8c-0.3,0.5-2.9,0.8-4,0.8C4.3,6.4,1.6,6.2,1.4,5.6z M9.4,5.9
	c-0.6,0.5-2.3,0.8-4,0.8c-2,0-3.6-0.2-4-0.8c0,0-0.1,1.6,2.4,2.4c1.8,0.6,0.8,1.6,0.8,1.6s-1.9,1.8-0.3,2.4c1,0.4,0.9,0.9,0.8,1.1
	c1-1.3-1.9-1.5,1.3-2.9c1.6-0.8,1.8-1.2,1.3-1.9C7.1,7.7,9.3,7.3,9.4,5.9z"/>
<path class="st1" d="M9.4,4C9.2,4.2,9,4.3,9,4.4c0,0.1,0.2,0,0.5-0.1c0.2-0.1,0.4-0.1,0.4,0.2c0,0.2,0.1,0.4,0.1,0.3
	c0.1,0,0.1-0.2,0.1-0.5c0-0.2,0.2-0.5,0.5-0.7c0.3-0.2,0.5,0,0.5,0.3c0,0.3-0.2,0.7-0.3,0.8c-0.2,0.1-0.3,0.3-0.3,0.3
	c0,0.1,0.2,0.1,0.3,0c0.2-0.1,0.3,0,0.3,0.3c0,0.3,0.1,0.5,0.1,0.5c0.1,0,0.1-0.2,0.1-0.5c0-0.3,0.2-0.4,0.3-0.3C11.9,5,12,5,12,5
	c0-0.1-0.2-0.2-0.3-0.3c-0.2-0.1-0.3-0.4-0.3-0.8c0-0.3,0.2-0.4,0.5-0.3c0.3,0.2,0.5,0.5,0.5,0.7c0,0.2,0.1,0.4,0.1,0.5
	c0.1,0,0.1-0.1,0.1-0.3c0-0.2,0.2-0.3,0.4-0.2c0.2,0.1,0.4,0.2,0.5,0.1c0-0.1-0.1-0.2-0.3-0.3c-0.2-0.1-0.3-0.3-0.1-0.4
	c0.2-0.1,0.3-0.2,0.2-0.3c-0.1,0-0.3,0-0.5,0.1c-0.2,0.1-0.6,0.1-0.8-0.1c-0.3-0.2-0.3-0.4,0-0.6c0.3-0.2,0.7-0.2,0.8-0.1
	c0.2,0.1,0.4,0.2,0.5,0.1c0.1,0,0-0.2-0.2-0.3c-0.2-0.1-0.2-0.3,0.1-0.4c0.2-0.1,0.4-0.3,0.3-0.3c0-0.1-0.2,0-0.5,0.1
	C12.8,2,12.6,2,12.6,1.7c0-0.2-0.1-0.4-0.1-0.3c-0.1,0-0.1,0.2-0.1,0.5c0,0.2-0.2,0.5-0.5,0.7c-0.3,0.2-0.5,0-0.5-0.3
	c0-0.3,0.2-0.7,0.3-0.8C11.9,1.4,12,1.3,12,1.2c0-0.1-0.2-0.1-0.3,0c-0.2,0.1-0.3,0-0.3-0.3c0-0.3-0.1-0.5-0.1-0.5
	c-0.1,0-0.1,0.2-0.1,0.5c0,0.3-0.2,0.4-0.3,0.3c-0.2-0.1-0.3-0.1-0.3,0c0,0.1,0.2,0.2,0.3,0.3C11,1.6,11.1,2,11.1,2.3
	c0,0.3-0.2,0.4-0.5,0.3c-0.3-0.2-0.5-0.5-0.5-0.7c0-0.2-0.1-0.4-0.1-0.5c-0.1,0-0.1,0.1-0.1,0.3C9.9,2,9.7,2,9.5,1.9
	C9.3,1.8,9.1,1.7,9,1.8C9,1.8,9.2,2,9.4,2.1c0.2,0.1,0.3,0.3,0.1,0.4C9.3,2.7,9.2,2.8,9.3,2.8c0.1,0,0.3,0,0.5-0.1
	c0.2-0.1,0.6-0.1,0.8,0.1c0.3,0.2,0.3,0.4,0,0.6c-0.3,0.2-0.7,0.2-0.8,0.1C9.5,3.3,9.3,3.3,9.3,3.3c-0.1,0,0,0.2,0.2,0.3
	C9.6,3.7,9.6,3.9,9.4,4z"/>
<path class="st1" d="M18.2,4.4c0-0.1,0.4-1.2-0.3-1.5c-0.8-0.4-1-0.7-1-1.2c0,0-0.5,0.8-0.2,1.2c0.5,0.6,0.3,1,0,1
	c-0.5-0.1-0.4-0.7-0.3-0.8c-0.2,0-0.5,0.1-0.7,0.3c-0.4,0.6,0.5,1.2,0.2,1.7c-0.2,0.3-0.7-0.3-0.7-0.3c-0.5,2.6,3.1,2.7,3.3,0.5
	c0.1-0.7,0.6-1,0.7-1C18.6,4,18.2,4.5,18.2,4.4z M17,6.3c-0.9,0-0.8-0.6-0.7-0.8c0.1-0.3,0.5-0.3,0.3-0.7c0,0,0.4,0.1,0.7,0.3
	C17.8,5.5,17.7,6.3,17,6.3z M17.6,2.3c-0.1-0.1-0.2-0.2-0.2-0.3c0-0.2,0.1-0.3,0.3-0.5c0,0.1-0.1,0.3,0,0.5c0.1,0.1,0.2,0.2,0.2,0.3
	c0,0.1,0,0.2-0.2,0.3C17.7,2.6,17.7,2.4,17.6,2.3z"/>
<path class="st0" d="M15.4,11.4c0-1.1-0.9-2-2-2.1c0.5,0,0.9,0.4,0.9,0.8c0,0.1,0,0.3-0.1,0.4c-0.2-0.2-0.5-0.3-0.8-0.3
	c-0.3,0-0.6,0.1-0.8,0.3c-0.1-0.1-0.1-0.3-0.1-0.4c0-0.4,0.4-0.8,0.9-0.8c-1.1,0.1-2,1-2,2.1c0,0.3,0.1,0.6,0.2,0.9
	c-0.2-0.4-0.1-0.9,0.3-1.1c0.1-0.1,0.3-0.1,0.4-0.1c0,0.1,0,0.2,0,0.3c0,0.6,0.4,1,0.9,1.1c0,0,0,0,0,0c0,0,0,0,0,0
	c0,0,0,0.1-0.1,0.1c-0.1,0.1-0.1,0.1-0.2,0.2c-0.4,0.2-0.9,0.1-1.1-0.3c0.4,0.6,1,0.9,1.7,0.9c0.7,0,1.3-0.4,1.7-0.9
	c-0.3,0.4-0.8,0.5-1.1,0.3c-0.1-0.1-0.2-0.2-0.3-0.3c0.5-0.1,0.9-0.6,0.9-1.1c0-0.1,0-0.2,0-0.3c0.1,0,0.3,0,0.4,0.1
	c0.4,0.2,0.5,0.7,0.3,1.1C15.3,12,15.4,11.7,15.4,11.4z M13.5,12.2c0-0.2,0-0.4,0.1-0.5l-0.1-0.1c0,0.1-0.1,0.1-0.2,0.1
	c-0.1,0-0.1,0-0.2-0.1L13,11.6c0.1,0.2,0.1,0.4,0.1,0.5c-0.4-0.1-0.6-0.4-0.6-0.8c0-0.1,0-0.1,0-0.2c0.2,0.1,0.3,0.2,0.4,0.4
	l0.1-0.1c0,0,0,0,0-0.1c0-0.1,0.1-0.2,0.2-0.3v-0.2c-0.2,0-0.4-0.1-0.5-0.2c0.1-0.1,0.4-0.2,0.6-0.2c0.2,0,0.4,0.1,0.6,0.2
	c-0.1,0.1-0.3,0.2-0.5,0.2v0.2c0.1,0,0.2,0.1,0.2,0.3c0,0,0,0,0,0.1l0.1,0.1c0.1-0.2,0.2-0.3,0.4-0.4c0,0.1,0,0.1,0,0.2
	C14.2,11.7,13.9,12.1,13.5,12.2z"/>
</svg>
