<?xml version="1.0" encoding="utf-8"?>
<!-- Generator: Adobe Illustrator 21.1.0, SVG Export Plug-In . SVG Version: 6.00 Build 0)  -->
<svg version="1.0" id="Layer_1" xmlns="http://www.w3.org/2000/svg" xmlns:xlink="http://www.w3.org/1999/xlink" x="0px" y="0px"
	 viewBox="0 0 20 20" style="enable-background:new 0 0 20 20;" xml:space="preserve">
<style type="text/css">
	.st0{fill:#E32219;}
</style>
<path class="st0" d="M16,0H4C1.8,0,0,1.8,0,4v12c0,2.2,1.8,4,4,4h12c2.2,0,4-1.8,4-4V4C20,1.8,18.2,0,16,0z M15.8,6.7
	c0,0-0.7,0.7-1.7,0.2c0,0-0.6,0.5-1.4,0c0,0-0.7,0.5-1.4,0.1c0,0-0.4,0.3-0.8,0.2l0,2.6c0,0,0,0,0.1,0c0,0,0.8-0.2,1.6-0.4
	c0.8-0.2,1.6-0.5,1.8-0.7c0,0,0,0-0.1,0c-0.1,0-0.2-0.1-0.3-0.1c-0.3-0.1-0.7-0.1-1.1-0.1c-0.8,0-0.9,0-0.9,0c0,0-0.4,0.1-0.6-0.4
	c0,0,0,0,0,0c0-0.3,0.3-0.3,0.5-0.4c0.3,0,0.2,0,0.6,0c0.7,0.1,2.9-0.1,3.2,1c0,0,0,0.1,0,0.1c-0.1,1-2.2,1.4-3.7,1.7
	c0.5,0.3,0.8,0.8,0.9,1.4c0.1,0.6-0.4,1.2-1.6,1.9c0.9,0.6,1.5,1.2,1.4,1.9c-0.1,0.6-0.6,1.3-1.6,1.8c0,0,0,0,0,0c0,0,0,0,0,0
	c0,0,0.7-1.1,0.7-1.6c0-0.3-0.1-0.8-0.9-1.4l0,2.1h0c0,0.2-0.1,0.3-0.3,0.3c-0.2,0-0.3-0.1-0.3-0.3h0l0-2.1c-0.8,0.6-1,1.1-1,1.4
	c0,0.6,0.7,1.6,0.7,1.6c0,0,0,0,0,0c0,0,0,0,0,0c-1-0.5-1.5-1.3-1.6-1.8c0-0.7,0.5-1.3,1.4-1.9c-1.2-0.7-1.7-1.3-1.6-1.9
	c0.1-0.6,0.4-1,0.9-1.4C7,10.2,5,9.8,4.9,8.8c0,0,0,0,0-0.1c0.3-1.1,2.5-1,3.2-1c0.4,0,0.3,0,0.6,0c0.2,0,0.4,0.1,0.5,0.4
	c0,0,0,0,0,0C9,8.5,8.5,8.4,8.5,8.5c0,0-0.2,0-0.9,0c-0.4,0-0.8,0-1.1,0.1c-0.1,0-0.3,0.1-0.3,0.1c0,0,0,0-0.1,0
	c0.1,0.2,1,0.5,1.8,0.7c0.8,0.2,1.6,0.4,1.6,0.4c0.1,0,0.1,0,0.1,0l0-2.6C9.2,7.3,8.8,7,8.8,7C8.1,7.5,7.4,7,7.4,7
	C6.5,7.4,6,6.9,6,6.9C4.9,7.4,4.2,6.7,4.2,6.7C3,6.9,2.5,5.9,2.5,5.9c2.3,0.2,4.2-2,4.6-2.4C7.6,3.1,8,3.2,8.5,4
	c0.3,0.6,0.8,0.6,1.1,0.6l0-0.1C9.2,4.4,9,4,9,3.6C9,3,9.4,2.5,10,2.5s1.1,0.5,1.1,1.1c0,0.4-0.2,0.8-0.6,1l0,0.1
	c0.3,0,0.8-0.1,1.1-0.6c0.5-0.8,0.8-0.9,1.3-0.5c0.5,0.4,2.4,2.6,4.6,2.4C17.5,5.9,17.1,6.9,15.8,6.7z M9.6,10.9l0,2.1
	c-0.2-0.1-0.4-0.3-0.6-0.4c-0.3-0.2-0.4-0.4-0.4-0.6C8.7,11.9,8.6,11.3,9.6,10.9z M10.4,11c1,0.4,0.9,0.9,0.9,1.1
	c0,0.2-0.1,0.4-0.4,0.6c-0.2,0.1-0.4,0.2-0.6,0.3L10.4,11z"/>
</svg>
