<?xml version="1.0" encoding="utf-8"?>
<!-- Generator: Adobe Illustrator 21.1.0, SVG Export Plug-In . SVG Version: 6.00 Build 0)  -->
<svg version="1.0" id="Layer_1" xmlns="http://www.w3.org/2000/svg" xmlns:xlink="http://www.w3.org/1999/xlink" x="0px" y="0px"
	 viewBox="0 0 20 20" style="enable-background:new 0 0 20 20;" xml:space="preserve">
<style type="text/css">
	.st0{fill:#E32219;}
	.st1{clip-path:url(#SVGID_2_);fill:#FFFFFF;}
	.st2{fill:#FFFFFF;}
</style>
<path class="st0" d="M16,0H4C1.8,0,0,1.8,0,4v12c0,2.2,1.8,4,4,4h12c2.2,0,4-1.8,4-4V4C20,1.8,18.2,0,16,0z"/>
<g>
	<g>
		<defs>
			<rect id="SVGID_1_" x="1" y="1" width="18" height="18"/>
		</defs>
		<clipPath id="SVGID_2_">
			<use xlink:href="#SVGID_1_"  style="overflow:visible;"/>
		</clipPath>
		<path class="st1" d="M11,3.7l0-1L11.6,4C11.6,4,11.7,4,11.8,4c0.1,0,0.1-0.1,0.1-0.1c0,0-0.4-1.2-0.5-1.5C11.2,2.2,11,2,10.6,2
			h-0.1C10,2,9.8,2.2,9.7,2.4C9.6,2.6,9.2,3.9,9.2,3.9c0,0.1,0,0.1,0.1,0.1C9.3,4,9.4,4,9.4,4L10,2.7l0,1L9.9,6.2
			c0,0.1,0.1,0.2,0.2,0.2c0,0,0,0,0,0c0.1,0,0.2-0.1,0.2-0.2l0.2-2.1l0.2,2.1c0,0.1,0.1,0.2,0.2,0.2c0,0,0,0,0,0
			c0.1,0,0.2-0.1,0.2-0.2L11,3.7L11,3.7z M10.5,1C10.2,1,10,1.2,10,1.5c0,0.3,0.2,0.5,0.5,0.5c0.3,0,0.5-0.2,0.5-0.5
			C11,1.2,10.8,1,10.5,1"/>
		<path class="st1" d="M12.4,5.2l-0.8,1.5c0,0.1,0,0.1,0,0.2c0.1,0,0.1,0,0.2,0l1-1.4l0.3,0.2l0.7-1.8l-0.1,1.4c0,0.1,0,0.1,0.1,0.1
			c0.1,0,0.1,0,0.1-0.1c0,0,0.3-1.3,0.3-1.6c0-0.3,0-0.4-0.4-0.7l-0.1,0c-0.4-0.2-0.6-0.2-0.8,0c-0.2,0.1-1.3,0.9-1.3,0.9
			c-0.1,0-0.1,0.1,0,0.2c0,0.1,0.1,0.1,0.2,0L13,3.3l-1.3,1.4L12,4.9l-0.8,1.5c0,0.1,0,0.1,0,0.2c0.1,0,0.1,0,0.2,0L12.4,5.2
			L12.4,5.2z M14.5,2.7c-0.1,0.2-0.4,0.3-0.7,0.1c-0.2-0.1-0.3-0.4-0.2-0.6c0.1-0.2,0.4-0.3,0.7-0.1C14.5,2.2,14.6,2.5,14.5,2.7"/>
		<path class="st1" d="M15.2,6.3l0.7-0.7l-0.5,1.3c0,0.1,0,0.1,0.1,0.1c0.1,0,0.1,0,0.1-0.1c0,0,0.6-1.2,0.7-1.4
			c0.1-0.2,0.1-0.5-0.3-0.8L16,4.7c-0.3-0.3-0.5-0.3-0.8-0.3c-0.2,0.1-1.4,0.7-1.4,0.7c-0.1,0-0.1,0.1-0.1,0.1
			c0,0.1,0.1,0.1,0.1,0.1l1.3-0.5l-0.7,0.7l-1.9,1.7c-0.1,0.1-0.1,0.2,0,0.3c0,0,0,0,0,0c0.1,0.1,0.2,0.1,0.3,0l1.6-1.3l-1.3,1.6
			c-0.1,0.1-0.1,0.2,0,0.3c0,0,0,0,0,0c0.1,0.1,0.2,0.1,0.3,0L15.2,6.3L15.2,6.3z M16.7,4c-0.2-0.2-0.5-0.2-0.7,0
			c-0.2,0.2-0.2,0.5,0,0.7c0.2,0.2,0.5,0.2,0.7,0C16.9,4.5,16.9,4.2,16.7,4"/>
		<path class="st1" d="M15.1,8.3l-1.6,0.5c-0.1,0-0.1,0.1-0.1,0.1C13.4,9,13.5,9,13.5,9l1.7-0.3L15.3,9l1.8-0.7L16,9.2
			c0,0-0.1,0.1,0,0.2c0,0.1,0.1,0.1,0.2,0c0,0,1.1-0.7,1.3-0.9c0.2-0.2,0.3-0.3,0.2-0.7l0-0.1c-0.1-0.4-0.3-0.5-0.5-0.6
			c-0.3-0.1-1.6-0.2-1.6-0.2c-0.1,0-0.1,0-0.1,0.1c0,0.1,0,0.1,0.1,0.1l1.4,0.4l-1.9,0.1L15,7.8l-1.6,0.5c-0.1,0-0.1,0.1-0.1,0.1
			c0,0.1,0.1,0.1,0.1,0.1l1.7-0.3L15.1,8.3z M18.3,8c-0.2,0.1-0.5-0.1-0.6-0.4c-0.1-0.3,0.1-0.5,0.3-0.6c0.2-0.1,0.5,0.1,0.6,0.4
			C18.7,7.7,18.6,8,18.3,8"/>
		<path class="st1" d="M6.3,4.8L5.6,4.1l1.3,0.5c0.1,0,0.1,0,0.1-0.1C7,4.4,7,4.4,7,4.4c0,0-1.2-0.6-1.4-0.7
			C5.3,3.6,5.1,3.6,4.7,3.9L4.7,4C4.4,4.3,4.3,4.6,4.4,4.8C4.5,5,5.1,6.2,5.1,6.2c0,0.1,0.1,0.1,0.1,0.1c0.1,0,0.1-0.1,0.1-0.1
			L4.8,4.8l0.7,0.7l1.7,1.9c0.1,0.1,0.2,0.1,0.3,0c0,0,0,0,0,0c0.1-0.1,0.1-0.2,0-0.3L6.2,5.5l1.6,1.3c0.1,0.1,0.2,0.1,0.3,0
			c0,0,0,0,0,0c0.1-0.1,0.1-0.2,0-0.3L6.3,4.8L6.3,4.8z M4,3.2C3.8,3.4,3.8,3.7,4,3.9c0.2,0.2,0.5,0.2,0.7,0c0.2-0.2,0.2-0.5,0-0.7
			C4.5,3.1,4.2,3.1,4,3.2"/>
		<path class="st1" d="M8.3,4.8l0.5,1.6c0,0.1,0.1,0.1,0.1,0.1C9,6.5,9,6.5,9,6.4L8.7,4.7L9,4.7L8.3,2.9L9.2,4c0,0,0.1,0.1,0.2,0
			c0.1,0,0.1-0.1,0-0.2c0,0-0.7-1.1-0.9-1.3C8.3,2.3,8.2,2.2,7.7,2.3l-0.1,0C7.2,2.4,7.1,2.6,7.1,2.9C7,3.1,6.8,4.4,6.8,4.4
			c0,0.1,0,0.1,0.1,0.1C7,4.6,7,4.5,7,4.5l0.4-1.4L7.5,5L7.8,5l0.5,1.6c0,0.1,0.1,0.1,0.1,0.1c0.1,0,0.1-0.1,0.1-0.1L8.2,4.9
			L8.3,4.8z M8,1.7c0.1,0.2-0.1,0.5-0.4,0.6C7.4,2.3,7.1,2.1,7.1,1.9C7,1.6,7.2,1.4,7.4,1.3C7.7,1.3,8,1.4,8,1.7"/>
		<path class="st1" d="M16.3,11l1,0L16,11.6c-0.1,0-0.1,0.1-0.1,0.1c0,0.1,0.1,0.1,0.1,0.1c0,0,1.2-0.4,1.5-0.5
			c0.2-0.1,0.4-0.3,0.4-0.7v-0.1c0-0.4-0.1-0.6-0.4-0.7c-0.2-0.1-1.5-0.5-1.5-0.5c-0.1,0-0.1,0-0.1,0.1c0,0.1,0,0.1,0.1,0.1l1.3,0.6
			l-1,0l-2.5-0.1c-0.1,0-0.2,0.1-0.2,0.2c0,0,0,0,0,0c0,0.1,0.1,0.2,0.2,0.2l2.1,0.2l-2.1,0.2c-0.1,0-0.2,0.1-0.2,0.2c0,0,0,0,0,0
			c0,0.1,0.1,0.2,0.2,0.2L16.3,11L16.3,11z M19,10.5c0-0.3-0.2-0.5-0.5-0.5c-0.3,0-0.5,0.2-0.5,0.5c0,0.3,0.2,0.5,0.5,0.5
			C18.8,11,19,10.8,19,10.5"/>
		<path class="st1" d="M14.8,12.4l-1.5-0.8c-0.1,0-0.1,0-0.2,0c0,0.1,0,0.1,0,0.2l1.4,1l-0.2,0.3l1.8,0.7l-1.4-0.1
			c-0.1,0-0.1,0-0.1,0.1c0,0.1,0,0.1,0.1,0.1c0,0,1.3,0.3,1.6,0.3c0.3,0,0.4,0,0.7-0.4l0-0.1c0.2-0.4,0.2-0.6,0-0.8
			c-0.1-0.2-0.9-1.3-0.9-1.3c0-0.1-0.1-0.1-0.2,0c-0.1,0-0.1,0.1,0,0.2l0.7,1.2l-1.4-1.3L15.1,12l-1.5-0.8c-0.1,0-0.1,0-0.2,0
			c0,0.1,0,0.1,0,0.2L14.8,12.4L14.8,12.4z M17.3,14.5c-0.2-0.1-0.3-0.4-0.1-0.7c0.1-0.2,0.4-0.3,0.6-0.2c0.2,0.1,0.3,0.4,0.1,0.7
			C17.8,14.5,17.5,14.6,17.3,14.5"/>
		<path class="st1" d="M13.7,15.2l0.7,0.7l-1.3-0.5c-0.1,0-0.1,0-0.1,0.1c0,0.1,0,0.1,0.1,0.1c0,0,1.2,0.6,1.4,0.7
			c0.2,0.1,0.5,0.1,0.8-0.3l0.1-0.1c0.3-0.3,0.3-0.5,0.3-0.8c-0.1-0.2-0.7-1.4-0.7-1.4c0-0.1-0.1-0.1-0.1-0.1
			c-0.1,0-0.1,0.1-0.1,0.1l0.5,1.3l-0.7-0.7l-1.7-1.9c-0.1-0.1-0.2-0.1-0.3,0c0,0,0,0,0,0c-0.1,0.1-0.1,0.2,0,0.3l1.3,1.6l-1.6-1.3
			c-0.1-0.1-0.2-0.1-0.3,0c0,0,0,0,0,0c-0.1,0.1-0.1,0.2,0,0.3L13.7,15.2L13.7,15.2z M16,16.7c0.2-0.2,0.2-0.5,0-0.7
			c-0.2-0.2-0.5-0.2-0.7,0c-0.2,0.2-0.2,0.5,0,0.7C15.5,16.9,15.8,16.9,16,16.7"/>
		<path class="st1" d="M11.7,15.1l-0.5-1.6c0-0.1-0.1-0.1-0.1-0.1c-0.1,0-0.1,0.1-0.1,0.1l0.3,1.7L11,15.3l0.7,1.8L10.8,16
			c0,0-0.1-0.1-0.2,0c-0.1,0-0.1,0.1,0,0.2c0,0,0.7,1.1,0.9,1.3c0.2,0.2,0.3,0.3,0.7,0.2l0.1,0c0.4-0.1,0.5-0.3,0.6-0.5
			c0.1-0.3,0.2-1.6,0.2-1.6c0-0.1,0-0.1-0.1-0.1c-0.1,0-0.1,0-0.1,0.1l-0.4,1.4L12.5,15L12.2,15l-0.5-1.6c0-0.1-0.1-0.1-0.1-0.1
			c-0.1,0-0.1,0.1-0.1,0.1l0.3,1.7L11.7,15.1z M12,18.3c-0.1-0.2,0.1-0.5,0.4-0.6c0.3-0.1,0.5,0.1,0.6,0.3c0.1,0.2-0.1,0.5-0.4,0.6
			C12.3,18.7,12,18.6,12,18.3"/>
		<path class="st1" d="M9,16.3l0,1L8.4,16C8.3,16,8.3,16,8.2,16c-0.1,0-0.1,0.1-0.1,0.1c0,0,0.4,1.2,0.5,1.5C8.8,17.8,9,18,9.4,18
			h0.1c0.4,0,0.6-0.1,0.7-0.4c0.1-0.2,0.5-1.5,0.5-1.5c0-0.1,0-0.1-0.1-0.1c-0.1,0-0.1,0-0.1,0.1L10,17.3l0-1l0.1-2.5
			c0-0.1-0.1-0.2-0.2-0.2c0,0,0,0,0,0c-0.1,0-0.2,0.1-0.2,0.2l-0.2,2.1l-0.2-2.1c0-0.1-0.1-0.2-0.2-0.2c0,0,0,0,0,0
			c-0.1,0-0.2,0.1-0.2,0.2L9,16.3L9,16.3z M9.5,19c0.3,0,0.5-0.2,0.5-0.5c0-0.3-0.2-0.5-0.5-0.5c-0.3,0-0.5,0.2-0.5,0.5
			C9,18.8,9.2,19,9.5,19"/>
		<path class="st1" d="M7.5,14.8l0.8-1.5c0-0.1,0-0.1,0-0.2c-0.1,0-0.1,0-0.2,0l-1,1.4l-0.3-0.2l-0.7,1.8l0.1-1.4
			c0-0.1,0-0.1-0.1-0.1c-0.1,0-0.1,0-0.1,0.1c0,0-0.3,1.3-0.3,1.6c0,0.3,0,0.4,0.4,0.7l0.1,0c0.4,0.2,0.6,0.2,0.8,0
			c0.2-0.1,1.3-0.9,1.3-0.9c0.1,0,0.1-0.1,0-0.2c0-0.1-0.1-0.1-0.2,0L7,16.7l1.3-1.4L8,15.1l0.8-1.5c0-0.1,0-0.1,0-0.2
			c-0.1,0-0.1,0-0.2,0L7.5,14.8L7.5,14.8z M5.5,17.3c0.1-0.2,0.4-0.3,0.7-0.1c0.2,0.1,0.3,0.4,0.2,0.6c-0.1,0.2-0.4,0.3-0.7,0.1
			C5.4,17.8,5.4,17.5,5.5,17.3"/>
		<path class="st1" d="M4.8,13.7l-0.7,0.7l0.5-1.3c0-0.1,0-0.1-0.1-0.1c-0.1,0-0.1,0-0.1,0.1c0,0-0.6,1.2-0.7,1.4
			c-0.1,0.2-0.1,0.5,0.3,0.8L4,15.3c0.3,0.3,0.5,0.3,0.8,0.3c0.2-0.1,1.4-0.7,1.4-0.7c0.1,0,0.1-0.1,0.1-0.1c0-0.1-0.1-0.1-0.1-0.1
			l-1.3,0.5l0.7-0.7l1.9-1.7c0.1-0.1,0.1-0.2,0-0.3c0,0,0,0,0,0c-0.1-0.1-0.2-0.1-0.3,0l-1.6,1.3l1.3-1.6c0.1-0.1,0.1-0.2,0-0.3
			c0,0,0,0,0,0c-0.1-0.1-0.2-0.1-0.3,0L4.8,13.7L4.8,13.7z M3.3,16c0.2,0.2,0.5,0.2,0.7,0c0.2-0.2,0.2-0.5,0-0.7
			c-0.2-0.2-0.5-0.2-0.7,0C3.1,15.5,3.1,15.8,3.3,16"/>
		<path class="st1" d="M4.9,11.7l1.6-0.5c0.1,0,0.1-0.1,0.1-0.1C6.6,11,6.5,11,6.4,11l-1.7,0.3l-0.1-0.3l-1.8,0.7L4,10.8
			c0,0,0.1-0.1,0-0.2c0-0.1-0.1-0.1-0.2,0c0,0-1.1,0.7-1.3,0.9c-0.2,0.2-0.3,0.3-0.2,0.7l0,0.1c0.1,0.4,0.3,0.5,0.5,0.6
			c0.3,0.1,1.6,0.2,1.6,0.2c0.1,0,0.1,0,0.1-0.1c0-0.1,0-0.1-0.1-0.1l-1.4-0.4L5,12.5L5,12.2l1.6-0.5c0.1,0,0.1-0.1,0.1-0.1
			c0-0.1-0.1-0.1-0.1-0.1l-1.7,0.3L4.9,11.7z M1.7,12c0.2-0.1,0.5,0.1,0.6,0.4c0.1,0.3-0.1,0.5-0.3,0.6c-0.2,0.1-0.5-0.1-0.6-0.4
			C1.3,12.3,1.4,12,1.7,12"/>
		<path class="st1" d="M3.7,9l-1,0L4,8.3C4,8.3,4,8.3,4,8.2c0-0.1-0.1-0.1-0.1-0.1c0,0-1.2,0.4-1.5,0.5C2.2,8.8,2,9,2,9.4v0.1
			c0,0.4,0.1,0.6,0.4,0.7c0.2,0.1,1.5,0.5,1.5,0.5c0.1,0,0.1,0,0.1-0.1c0-0.1,0-0.1-0.1-0.1L2.7,10l1,0l2.5,0.1
			c0.1,0,0.2-0.1,0.2-0.2c0,0,0,0,0,0c0-0.1-0.1-0.2-0.2-0.2L4.2,9.5l2.1-0.2c0.1,0,0.2-0.1,0.2-0.2c0,0,0,0,0,0
			c0-0.1-0.1-0.2-0.2-0.2L3.7,9L3.7,9z M1,9.5c0,0.3,0.2,0.5,0.5,0.5c0.3,0,0.5-0.2,0.5-0.5C1.9,9.2,1.7,9,1.5,9C1.2,9,1,9.2,1,9.5"
			/>
		<path class="st1" d="M5.2,7.5l1.5,0.8c0.1,0,0.1,0,0.2,0c0-0.1,0-0.1,0-0.2l-1.4-1l0.2-0.3L3.8,6.2l1.4,0.1c0.1,0,0.1,0,0.1-0.1
			c0-0.1,0-0.1-0.1-0.1c0,0-1.3-0.3-1.6-0.3c-0.3,0-0.4,0-0.7,0.4l0,0.1C2.7,6.6,2.8,6.8,2.9,7C3,7.2,3.8,8.3,3.8,8.3
			c0,0.1,0.1,0.1,0.2,0C4,8.3,4,8.2,4,8.2L3.3,7l1.4,1.3L4.9,8l1.5,0.8c0.1,0,0.1,0,0.2,0c0-0.1,0-0.1,0-0.2L5.2,7.5L5.2,7.5z
			 M2.7,5.5C2.9,5.6,3,5.9,2.9,6.1C2.7,6.4,2.4,6.4,2.2,6.3C2,6.2,1.9,5.9,2.1,5.7C2.2,5.4,2.5,5.4,2.7,5.5"/>
	</g>
	<path class="st2" d="M13.3,9.2L13.3,9.2C13.3,9.2,13.4,9.2,13.3,9.2L13.3,9.2z M8.9,8.3L8.9,8.3L8.9,8.3L8.9,8.3L8.9,8.3z M9,8.4
		L9,8.4L8.9,8.5l0,0V8.4h0L9,8.4z M8.6,8.3h0.1L8.5,8.5l-0.1,0L8.6,8.3L8.6,8.3z M8.8,8.4L8.8,8.4l0,0.1H8.7l0-0.1L8.8,8.4L8.8,8.4
		L8.8,8.4z M8.8,8.3L8.8,8.3L8.8,8.3L8.8,8.3z M8.9,8.3L8.9,8.3L8.8,8.4l-0.1,0V8.3H8.9z M8.8,8.2L8.8,8.2L8.6,8.3l-0.1,0l0,0l0.1,0
		L8.8,8.2L8.8,8.2L8.8,8.2z M8.3,8L8.3,8l0.2,0l0,0.1l-0.1,0L8.3,8z M13.3,9H13l-0.2-0.1l-0.2,0V9h-0.1l-0.1,0l-0.3-0.1V8.7l-0.4,0
		l-0.1,0.1h-0.2l-0.1,0l-0.2,0.1v0.2l-0.4,0.3l0,0.1h0.1l0,0.1l-0.1,0l0,0.3l0.3,0.4h0.1l0,0h0.3l0.1-0.1h0.1l0.1,0.1l0.2,0l0,0.3
		l0.2,0.4l-0.1,0.2l0,0.1l0.1,0.1v0.3l0.1,0.2v0.2h0.1c-0.6,0.8-1.6,1.3-2.7,1.3c-1.9,0-3.4-1.5-3.4-3.4c0-0.5,0.1-0.9,0.3-1.3V8.5
		L7,8.4C7,8.3,7,8.2,7.1,8.2l0,0.1L7,8.4c0,0.1-0.1,0.2-0.1,0.3v0.2L7,8.9v0.3l0.1,0.2l0.1,0l0-0.1L7.1,9.2l0-0.2h0.1l0,0.2l0.2,0.3
		l0,0.1l0.1,0.2l0.3,0.1v0l0.1,0l0,0.1l0.1,0l0.1,0l0.2,0.2l0.3,0l0,0.2l-0.2,0.1l0,0.2l0,0.1l0.3,0.3l0,0.1c0,0,0.1,0,0.1,0
		c0,0,0.2,0.2,0.2,0.2V12l0.1,0l0,0.3l0.1,0.2l0,0.3L9.3,13l0.2,0.2l0.2,0l0-0.1L9.5,13l0-0.1l0-0.1l0-0.1l-0.1,0l-0.1-0.1l0.1-0.1
		l0-0.1l-0.1,0l0-0.1l0.1,0l0.2-0.1l0.1-0.1l0.2-0.3l0-0.2l0.1-0.1l0.2,0l0.1-0.1l0-0.4l0.1-0.2l0-0.1l-0.1,0l-0.1-0.1l-0.3,0
		l-0.2-0.1l0-0.2l-0.1-0.1l-0.2,0L9.4,10L9.3,10l0,0.1l-0.2,0L9,9.9l-0.2,0l-0.2,0.2l-0.3,0l0-0.3l-0.2,0l0.1-0.2l0-0.1L7.9,9.6
		l-0.2,0L7.7,9.5l0-0.1l0.1-0.2l0.2-0.1h0.4l0,0.1l0.1,0.1l0-0.2L8.7,9l0.2-0.1l0-0.1l0.2-0.2l0.2-0.1l0,0l0.2-0.1l0.1,0l0,0
		l0.1-0.1l0,0l-0.1,0l-0.1,0V8.1l0,0h0.1l0,0l0,0.1l0,0v0l0,0l0.1,0l0-0.1l0.1,0v0.1l-0.1,0l0,0.1l0.2,0.1l0,0l0,0l0-0.1L10,8.2l0,0
		l0.1,0l0-0.1L9.9,7.9l0-0.2L9.8,7.8H9.7l0-0.2L9.5,7.5L9.4,7.6v0.2L9.2,7.9L9.1,8.1L9,8.1V7.9l-0.2,0L8.8,7.8l0-0.1L9,7.5l0.2,0
		l0,0.1l0.1,0l0-0.1l0.1,0l0,0l0,0l0-0.1l0.1,0l0.1-0.1l0,0h0l0,0l0.2,0l0.1,0.1L9.6,7.5l0.3,0.1l0-0.1h0.1l0.1-0.1l-0.1,0V7.2
		L9.8,7.1l-0.2,0L9.4,7.2l0,0.2l-0.1,0l0-0.1l0.1-0.1l-0.2,0l-0.1,0l0,0.1l0.1,0l0,0.1L9,7.3l0,0.1l-0.2,0c0,0,0-0.1,0-0.1
		c0,0,0.2,0,0.2,0L9,7.1L9,7.1L8.9,7.2l-0.2,0L8.6,7H8.4L8.2,7.2h0.2l0,0.1l0,0l0.2,0l0,0.1l-0.2,0l0-0.1l-0.1,0l-0.1,0L8,7.2
		c0.6-0.4,1.3-0.7,2-0.7c0.9,0,1.7,0.3,2.3,0.9l0,0.1l-0.2,0.1L12,7.6l0,0.1l0.1,0l0,0.1l0.1-0.1l0,0.2h0l-0.1,0L12,8l-0.1,0.2
		l-0.2,0l0,0.2l0.1,0l0,0.1l-0.2,0l-0.2,0l0,0.1l0,0.2l0.1,0l0.2,0l0.1,0l0-0.1L12,8.4l0.1,0l0.1-0.1l0,0.1l0.3,0.2l0,0l-0.1,0
		l0,0.1l0.1,0l0.1,0l0-0.1l0,0l0,0l-0.2-0.1l0-0.1h0.1l0,0l0.1,0.1l0,0.1l0.1,0.1l0-0.2l0.1-0.1l0,0.2L13,8.8l0.2,0
		C13.2,8.8,13.3,8.9,13.3,9L13.3,9z M8.1,7.6C8.1,7.6,8.2,7.5,8.1,7.6C8.2,7.5,8.2,7.6,8.1,7.6L8.1,7.6L8,7.6L8.1,7.6z M8,7.4L8,7.4
		L8,7.4L8,7.4l0.2,0v0.1l0,0L8,7.4L8,7.4z M12.5,7.8l0-0.2c0.1,0.1,0.1,0.1,0.2,0.2l-0.1,0.1l-0.2,0l0,0L12.5,7.8z M13,8.5L13,8.5
		c0.1,0,0.1,0.1,0.1,0.1l0,0l-0.1,0V8.5z M13.7,10c0-0.1,0-0.2,0-0.3c0-0.4-0.1-0.7-0.2-1c0,0,0,0,0-0.1c-0.2-0.4-0.4-0.8-0.7-1.1
		c0,0,0,0-0.1-0.1c-0.1-0.1-0.1-0.1-0.2-0.2c-0.7-0.6-1.6-1-2.5-1c-1,0-1.9,0.4-2.5,1C7.3,7.4,7.2,7.5,7,7.7C6.5,8.3,6.3,9.1,6.3,10
		c0,2.1,1.7,3.7,3.7,3.7c1.5,0,2.7-0.8,3.3-2c0.1-0.3,0.2-0.5,0.3-0.8c0-0.1,0-0.1,0-0.2C13.7,10.4,13.7,10.2,13.7,10
		C13.7,10,13.7,10,13.7,10"/>
</g>
</svg>
