<?xml version="1.0" encoding="utf-8"?>
<!-- Generator: Adobe Illustrator 21.1.0, SVG Export Plug-In . SVG Version: 6.00 Build 0)  -->
<svg version="1.0" id="Layer_1" xmlns="http://www.w3.org/2000/svg" xmlns:xlink="http://www.w3.org/1999/xlink" x="0px" y="0px"
	 viewBox="0 0 20 20" style="enable-background:new 0 0 20 20;" xml:space="preserve">
<style type="text/css">
	.st0{fill:#E32219;}
</style>
<path class="st0" d="M16,0H4C1.8,0,0,1.8,0,4v12c0,2.2,1.8,4,4,4h12c2.2,0,4-1.8,4-4V4C20,1.8,18.2,0,16,0z M12.9,11.4
	c0.2-0.8,0.2-1.6,0.2-2.2c0-0.9,0-1.4,0-1.4l0,1.4c0,0.6,0,1.4-0.1,2.2c0,0.2,0,0.5,0,0.8c-0.2,0-0.4,0.1-0.7,0.1c0,0,0,0,0,0
	C12.5,11.8,12.7,11.6,12.9,11.4z M12.6,10.2c0.1-0.8,0.1-1.5,0.1-2.1l0-1.3c0,0,0,0.5,0.1,1.3C12.7,8.7,12.8,9.4,12.6,10.2
	c0.1,0.2,0.2,0.5,0.1,1c-0.1,0.5-0.4,0.8-0.5,0.9c0-0.1-0.2-0.5-0.1-1.1C12.2,10.5,12.4,10.3,12.6,10.2z M12.2,7
	c0.1,0.5,0.1,1.2,0.1,1.9c0,0.2,0.1,0.5,0,0.9c-0.1,0.5-0.3,0.8-0.4,0.9c0-0.1-0.2-0.5-0.1-1c0.1-0.5,0.3-0.7,0.4-0.8
	C12.3,8.2,12.2,7.5,12.2,7L12,5.8C12,5.8,12.1,6.3,12.2,7z M11.7,5.9c0.1,0.5,0.2,1.1,0.2,1.7c0,0.2,0.1,0.4,0.1,0.9
	c0,0.5-0.3,0.8-0.3,0.9c0-0.1-0.2-0.4-0.2-0.9c0-0.4,0.2-0.6,0.3-0.8C11.8,7,11.7,6.4,11.7,5.9l-0.2-1.1L11.7,5.9z M11.1,4.9
	c0.1,0.4,0.2,1,0.3,1.6c0,0.2,0.1,0.4,0.1,0.8c0,0.4-0.2,0.7-0.2,0.8C11.2,8,11,7.7,11,7.2c0-0.4,0.2-0.6,0.3-0.7
	C11.3,5.9,11.1,5.3,11.1,4.9l-0.3-1L11.1,4.9z M9.5,6.7c0.3,0.4,0.5,0.9,0.9,1.4c0.2,0,0.4,0.1,0.7,0.5c0.3,0.4,0.3,0.8,0.3,0.9
	c-0.1-0.1-0.4-0.2-0.7-0.6c-0.2-0.3-0.3-0.6-0.4-0.8C10,7.6,9.7,7.1,9.5,6.7C9.1,6.2,8.9,5.8,8.9,5.8C8.9,5.8,9.1,6.1,9.5,6.7z
	 M8.7,4.8c0,0,0.2,0.3,0.6,0.8C9.5,6,9.8,6.4,10.1,6.9c0.2,0,0.4,0.1,0.6,0.4C11.1,7.7,11,8,11.1,8.1c-0.1-0.1-0.4-0.2-0.7-0.5
	c-0.2-0.3-0.3-0.5-0.4-0.7C9.7,6.4,9.4,6,9.2,5.6C8.9,5.1,8.7,4.8,8.7,4.8z M10.4,3.9c0.1,0.4,0.3,0.9,0.4,1.4C10.8,5.4,11,5.7,11,6
	c0,0.4-0.1,0.7-0.2,0.8c-0.1-0.1-0.2-0.3-0.3-0.8c0-0.4,0.1-0.6,0.2-0.7C10.7,4.8,10.5,4.3,10.4,3.9C10.2,3.3,10.1,3,10.1,3
	L10.4,3.9z M8.8,2.5c0.1,0.2,0.6,1,1.1,2.1c0.1,0.1,0.3,0.2,0.4,0.4c0.1,0.3,0,0.6,0,0.7C10.2,5.7,10,5.6,9.9,5.3
	c-0.1-0.2-0.1-0.4,0-0.6C9.3,3.4,8.7,2.5,8.8,2.5L8.8,2.5z M8.9,4.5c0.2,0.3,0.5,0.7,0.8,1.2c0.1,0,0.4,0.1,0.6,0.4
	c0.3,0.3,0.3,0.6,0.3,0.8c-0.1-0.1-0.4-0.2-0.6-0.5C9.8,6.1,9.8,5.9,9.7,5.7C9.4,5.3,9.1,4.8,8.9,4.5C8.6,4.1,8.4,3.8,8.4,3.8
	C8.4,3.8,8.6,4.1,8.9,4.5z M8.9,7.9c0.3,0.4,0.7,1,1,1.7c0.1,0.1,0.1,0.2,0.2,0.4c0.3,0.4,0.5,1,0.9,1.6c0-0.1,0.1-0.2,0.1-0.3
	c-0.1-0.3-0.2-0.7-0.4-1c-0.3-0.5-0.6-1-0.8-1.4c-0.4-0.6-0.6-1-0.6-1c0,0,0.3,0.4,0.7,1C10,9,10.1,9.1,10.2,9.3
	C10.1,9.1,10,9,10,8.9L9.2,7.5c0,0,0.3,0.5,0.8,1.4c0.2,0.4,0.5,0.9,0.8,1.4c0,0.1,0.1,0.1,0.1,0.2c0.1,0,0.4,0.1,0.6,0.3
	c0-0.1-0.1-0.2-0.1-0.3c-0.1-0.1-0.2-0.2-0.4-0.4c-0.3-0.4-0.3-0.6-0.4-0.8c-0.4-0.6-0.7-1.1-0.9-1.5C9.3,7.2,9.1,6.9,9.1,6.9
	c0,0,0.3,0.3,0.6,0.9c0.3,0.4,0.6,1,1,1.5c0,0,0.1,0,0.1,0c-0.3-0.6-0.5-1-0.5-1l0.5,1c0.2,0.1,0.4,0.2,0.6,0.4
	c0.3,0.5,0.3,0.8,0.3,1c0,0-0.1-0.1-0.2-0.1c0.1,0.2,0.2,0.4,0.2,0.5c0.1,0.2,0.1,0.3,0.2,0.4c0.1,0.2,0.2,0.5,0.3,0.8
	c0,0-0.1,0-0.1,0c0-0.1-0.1-0.2-0.1-0.3c0,0,0,0,0,0c-0.1-0.1-0.3-0.2-0.5-0.4c0,0.1,0.1,0.2,0.1,0.3c0.1,0.1,0.2,0.2,0.3,0.4
	c0,0,0,0,0,0c-0.3,0-0.6,0-1,0c-0.1-0.3-0.1-0.6,0-0.8c-0.1-0.2-0.2-0.4-0.3-0.5c0.1,0.6,0,1,0,1.1c-0.1-0.1-0.5-0.4-0.7-1.1
	c-0.2-0.5-0.1-0.9,0-1.1C9.6,9.2,9.2,8.5,8.9,7.9L8,6.6C8,6.6,8.4,7.1,8.9,7.9z M7.3,11.2C6.5,10.6,6,10.4,6,10.4
	C6,10.4,6.5,10.6,7.3,11.2c0.5,0.3,1.1,0.7,1.9,1.2c-0.1,0-0.2,0-0.2,0C8.3,11.9,7.7,11.5,7.3,11.2z M7.9,12.1c0,0-0.1,0-0.1,0
	c-0.6-0.5-1.1-0.7-1.1-0.7C6.7,11.4,7.2,11.7,7.9,12.1z M8.3,11.3c-0.7-0.4-1.4-0.9-1.9-1.2C5.7,9.6,5.3,9.3,5.3,9.3
	c0,0,0.5,0.2,1.2,0.7C7,10.3,7.7,10.8,8.3,11.3c0.3-0.1,0.7-0.2,1.2,0.1c0.6,0.3,0.8,0.8,0.9,0.9c-0.2,0-0.6,0-1.2-0.3
	C8.7,11.7,8.5,11.5,8.3,11.3z M4.5,8.3c0,0,0.5,0.2,1.2,0.6C6.1,9.2,6.8,9.6,7.5,10c0.2,0,0.6-0.1,1,0.2c0.6,0.3,0.8,0.7,0.8,0.9
	c-0.1,0-0.6,0-1.1-0.3c-0.5-0.2-0.7-0.5-0.8-0.6C6.7,9.7,6.1,9.3,5.6,9C4.9,8.5,4.5,8.3,4.5,8.3z M7.7,7C8,7.5,8.5,8.1,8.9,8.8
	C9,9,9.3,9.2,9.5,9.7c0.2,0.6,0.1,1,0.1,1.1c-0.1-0.1-0.5-0.4-0.7-1c-0.2-0.5-0.1-0.8,0-1C8.4,8.1,8,7.5,7.7,7L6.9,5.8L7.7,7z
	 M6.4,6.1c0.4,0.4,0.8,1,1.2,1.6C7.8,7.9,8,8.1,8.2,8.5c0.2,0.5,0.2,0.9,0.2,1C8.3,9.5,7.9,9.3,7.7,8.7C7.5,8.3,7.5,8,7.6,7.8
	C7.2,7.1,6.7,6.6,6.4,6.1l-0.8-1L6.4,6.1z M5.1,5.3c0.3,0.4,0.8,0.8,1.2,1.4C6.5,6.8,6.7,7,7,7.4c0.3,0.4,0.2,0.8,0.2,0.9
	C7.1,8.3,6.7,8.1,6.5,7.6C6.2,7.2,6.3,7,6.3,6.8C5.9,6.2,5.5,5.7,5.1,5.3C4.6,4.8,4.3,4.4,4.3,4.4L5.1,5.3z M2.6,4.7
	C2.8,4.8,3.8,5.5,5,6.5c0.1,0,0.4,0,0.7,0.3c0.3,0.3,0.3,0.6,0.3,0.7C5.9,7.5,5.6,7.4,5.4,7.2C5.1,7,5,6.7,5,6.6
	C3.6,5.4,2.5,4.6,2.6,4.7L2.6,4.7z M3.8,6.8c0.4,0.2,1,0.6,1.6,0.9c0.2,0,0.5-0.1,0.9,0.1C6.8,8,6.9,8.4,7,8.5c-0.1,0-0.5,0-0.9-0.2
	C5.7,8.1,5.5,7.9,5.3,7.7C4.7,7.4,4.2,7.1,3.8,6.8c-0.6-0.3-1-0.5-1-0.5C2.8,6.3,3.2,6.4,3.8,6.8z M3.7,7.3c0,0,0.4,0.2,1.1,0.6
	c0.5,0.3,1,0.6,1.7,1c0.2,0,0.5-0.1,1,0.1c0.5,0.3,0.7,0.7,0.8,0.8c-0.1,0-0.5,0-1-0.3C6.7,9.3,6.5,9,6.4,8.9
	c-0.7-0.4-1.2-0.7-1.7-1C4.1,7.5,3.7,7.3,3.7,7.3z M17.5,11.3c0,1.1-0.4,2.3-1,3.4c0,0-1.4,2.8-5.7,2.8c-4.3,0-5.7-2.8-5.7-2.8
	c-0.6-1.1-0.9-2.3-1-3.4h0c0,0,0-0.1,0-0.1c0-0.5,0.3-1,0.9-1.5l0.6,0.4C5.2,10.4,5,10.7,5,11c0,1,2.6,1.9,5.8,1.9
	c3.2,0,5.8-0.8,5.8-1.9c0-0.7-1.2-1.4-3.1-1.7l0-0.8C15.9,9,17.5,10,17.5,11.3C17.5,11.2,17.5,11.3,17.5,11.3L17.5,11.3z"/>
</svg>
