<?xml version="1.0" encoding="utf-8"?>
<!-- Generator: Adobe Illustrator 21.1.0, SVG Export Plug-In . SVG Version: 6.00 Build 0)  -->
<svg version="1.1" id="Layer_1" xmlns="http://www.w3.org/2000/svg" xmlns:xlink="http://www.w3.org/1999/xlink" x="0px" y="0px"
	 viewBox="0 0 20 20" style="enable-background:new 0 0 20 20;" xml:space="preserve">
<style type="text/css">
	.st0{fill:#E32219;}
	.st1{fill:#FFFFFF;}
	.st2{enable-background:new    ;}
</style>
<path class="st0" d="M16,0H4C1.8,0,0,1.8,0,4v12c0,2.2,1.8,4,4,4h12c2.2,0,4-1.8,4-4V4C20,1.8,18.2,0,16,0z"/>
<path class="st1" d="M10,2.5C9,2.4,8.6,3,8.1,3S7.3,2.4,6.3,2.5s-1.6,1-1.6,1l1.2,1.1h4.4l1.2-1.1C11.6,3.5,11,2.6,10,2.5z
	 M6.7,11.8H5.5c-1.2,0-1.5-1-1.5-1C3.2,7.3,5.6,5.3,5.6,5.3h5.1c0,0,1,0.8,1.5,2.2c-0.3,0.4-0.6,0.9-0.9,1.4c-0.2,0.5-0.4,1-0.5,1.5
	C9.5,10.4,7.6,10.6,6.7,11.8z M14.8,11.5c-0.1,0.2-0.2,0.3-0.3,0.4c0.5,0.2,0.9,0.5,0.9,0.8c0,0.7-1.8,1.3-3.9,1.3
	c-2.2,0-3.9-0.6-3.9-1.3c0-0.6,1.3-1.2,3-1.3c0-0.1,0-0.3,0-0.5c-2.2,0.1-3.9,0.7-3.9,2.4c0,2,2.1,4.1,4.7,4.1s4.7-2.1,4.7-4.1
	C16.2,12.4,15.7,11.8,14.8,11.5z M11.3,13.8l0.6-1l0,0c0.1-0.1-0.1-0.1-0.3-0.2l0,0c-0.2-0.1-0.2-0.2-0.3-0.1l-0.4,1.1
	C10.9,13.7,11.2,14,11.3,13.8z M11.6,11.1c-0.6-0.8-0.3-1.3-0.3-1.3c-0.2,0.1-0.9,2,0,2.4C11.7,12.4,12.3,11.9,11.6,11.1z M12.3,9.9
	C11.6,9.1,12,8.6,12,8.6c-0.2,0.1-0.9,2,0,2.4C12.3,11.2,12.9,10.7,12.3,9.9z M12.9,8.7c-0.6-0.8-0.3-1.3-0.3-1.3
	c-0.2,0.1-0.9,2,0,2.4C12.9,10,13.5,9.5,12.9,8.7z M12.2,12.6c0.8,0.4,1.9-1.2,1.9-1.4c0,0-0.2,0.6-1.2,0.5
	C11.8,11.7,11.8,12.4,12.2,12.6z M12.8,11.4c0.8,0.4,1.9-1.2,1.9-1.4c0,0-0.2,0.6-1.2,0.5C12.5,10.5,12.5,11.2,12.8,11.4z
	 M13.4,10.2c0.8,0.4,1.9-1.2,1.9-1.4c0,0-0.2,0.6-1.2,0.5C13.1,9.3,13.1,10.1,13.4,10.2z M13.5,9.1c0.9,0.4,0.9-1.9,0.9-1.9
	C14.2,7.4,12.6,8.7,13.5,9.1z"/>
<g class="st2">
	<path class="st0" d="M6.9,8.6l0.4,0.1C7.2,9,7.1,9.1,6.9,9.2C6.8,9.3,6.6,9.4,6.5,9.4C6.2,9.4,6,9.3,5.9,9.1
		C5.7,8.9,5.6,8.7,5.6,8.3c0-0.4,0.1-0.6,0.3-0.8C6,7.3,6.2,7.2,6.5,7.2c0.2,0,0.4,0.1,0.5,0.2c0.1,0.1,0.2,0.2,0.2,0.4L6.8,7.9
		c0-0.1-0.1-0.2-0.1-0.3C6.6,7.6,6.6,7.6,6.5,7.6c-0.1,0-0.2,0.1-0.3,0.2S6,8,6,8.3c0,0.3,0,0.5,0.1,0.6S6.3,9,6.5,9
		c0.1,0,0.2,0,0.3-0.1C6.8,8.9,6.8,8.7,6.9,8.6z"/>
	<path class="st0" d="M7.5,9.4V7.3h0.4v0.8h0.7V7.3H9v2.1H8.6V8.4H7.9v0.9H7.5z"/>
	<path class="st0" d="M9.4,9.4V7.3h1.3v0.4H9.7v0.5h0.8v0.4H9.7v0.9H9.4z"/>
</g>
</svg>
