<?xml version="1.0" encoding="utf-8"?>
<!-- Generator: Adobe Illustrator 21.1.0, SVG Export Plug-In . SVG Version: 6.00 Build 0)  -->
<svg version="1.1" id="Layer_1" xmlns="http://www.w3.org/2000/svg" xmlns:xlink="http://www.w3.org/1999/xlink" x="0px" y="0px"
	 viewBox="0 0 20 20" style="enable-background:new 0 0 20 20;" xml:space="preserve">
<style type="text/css">
	.st0{fill:#E32219;}
	.st1{fill-rule:evenodd;clip-rule:evenodd;fill:#FFFFFF;}
	.st2{fill:none;stroke:#FFFFFF;stroke-width:0.6;stroke-miterlimit:10;}
	.st3{fill:#FFFFFF;}
</style>
<path class="st0" d="M16,0H4C1.8,0,0,1.8,0,4v12c0,2.2,1.8,4,4,4h12c2.2,0,4-1.8,4-4V4C20,1.8,18.2,0,16,0z"/>
<g>
	<path class="st1" d="M9.2,17.1H4.5c-0.5,0-1-0.4-1-1V13c0-0.5,0.4-1,1-1h4.7c0.5,0,1,0.4,1,1v3.1C10.2,16.6,9.8,17.1,9.2,17.1z"/>
	<polyline class="st2" points="5.6,12 5.6,11 8.2,11 8.2,12 	"/>
	<path class="st3" d="M13.8,1.9c-0.7,0-1.3,0.6-1.3,1.3c0,0.7,0.6,1.3,1.3,1.3c0.7,0,1.3-0.6,1.3-1.3C15.1,2.5,14.5,1.9,13.8,1.9z
		 M15.9,5.9c-0.3-0.7-0.8-1-2-1h-0.1h-0.1c-1.2,0-1.7,0.4-2,1c-0.2,0.3-0.5,4.4-0.5,4.4c0,0.2,0.1,0.5,0.4,0.5c0,0,0,0,0,0
		c0.2,0,0.4-0.2,0.4-0.4l0.3-3.5l0.1,2.8l-0.3,7.1c0,0.3,0.2,0.5,0.5,0.5c0,0,0,0,0,0c0.3,0,0.5-0.2,0.5-0.5l0.6-5.9l0.6,5.9
		c0,0.3,0.2,0.5,0.5,0.5c0,0,0,0,0,0c0.3,0,0.5-0.3,0.5-0.5l-0.3-7.1l0.1-2.8l0.3,3.5c0,0.2,0.2,0.4,0.4,0.4c0,0,0,0,0,0
		c0.2,0,0.4-0.2,0.4-0.5C16.4,10.3,16.1,6.2,15.9,5.9z"/>
</g>
</svg>
