<?xml version="1.0" encoding="utf-8"?>
<!-- Generator: Adobe Illustrator 21.1.0, SVG Export Plug-In . SVG Version: 6.00 Build 0)  -->
<svg version="1.0" id="Layer_1" xmlns="http://www.w3.org/2000/svg" xmlns:xlink="http://www.w3.org/1999/xlink" x="0px" y="0px"
	 viewBox="0 0 20 20" style="enable-background:new 0 0 20 20;" xml:space="preserve">
<style type="text/css">
	.st0{fill:#E32219;}
</style>
<path class="st0" d="M16,0H4C1.8,0,0,1.8,0,4v12c0,2.2,1.8,4,4,4h12c2.2,0,4-1.8,4-4V4C20,1.8,18.2,0,16,0z M8.4,16.8L8.4,16.8
	L8.4,16.8l-2.9,0v-2.1l-2.9-3.8c-0.1-0.1-0.2-0.3-0.2-0.5V4.5c0-0.5,0.4-0.8,0.8-0.8c0.5,0,0.8,0.4,0.8,0.8v3.4C4,8,3.8,8,3.6,8.2
	c-0.4,0.4-0.5,1.1,0,1.6l1.6,1.6l0.2-0.2L3.8,9.6c-0.3-0.3-0.3-0.8,0-1.2C3.9,8.3,4,8.2,4.2,8.2c0.1,0,0.3,0,0.4,0
	c0.2,0,0.3,0.1,0.4,0.2L8.4,12V16.8z M7.7,8.8c-0.6-0.6-1-1.4-1-2.3c0-0.9,0.3-1.7,1-2.3c0.6-0.6,1.4-1,2.3-1c0.9,0,1.7,0.3,2.3,1
	c0.6,0.6,1,1.4,1,2.3c0,0.9-0.3,1.7-1,2.3c-0.6,0.6-1.4,1-2.3,1C9.1,9.7,8.3,9.4,7.7,8.8z M17.5,10.4c0,0.2-0.1,0.4-0.2,0.5
	l-2.9,3.8v2.1h-2.8v0h0V12L15,8.4c0.1-0.1,0.2-0.2,0.4-0.2c0.1,0,0.3,0,0.4,0c0.1,0,0.2,0.1,0.3,0.2c0.3,0.3,0.3,0.8,0,1.2l-1.6,1.6
	l0.2,0.2l1.6-1.6c0.4-0.4,0.4-1.1,0-1.6C16.2,8,16,8,15.8,7.9V4.5c0-0.5,0.4-0.8,0.8-0.8c0.5,0,0.8,0.4,0.8,0.8V10.4z"/>
</svg>
