<?xml version="1.0" encoding="utf-8"?>
<!-- Generator: Adobe Illustrator 21.1.0, SVG Export Plug-In . SVG Version: 6.00 Build 0)  -->
<svg version="1.0" id="Layer_1" xmlns="http://www.w3.org/2000/svg" xmlns:xlink="http://www.w3.org/1999/xlink" x="0px" y="0px"
	 viewBox="0 0 20 20" style="enable-background:new 0 0 20 20;" xml:space="preserve">
<style type="text/css">
	.st0{fill:#E32219;}
</style>
<path class="st0" d="M16,0H4C1.8,0,0,1.8,0,4v12c0,2.2,1.8,4,4,4h12c2.2,0,4-1.8,4-4V4C20,1.8,18.2,0,16,0z M13.4,15.8
	c0-0.4,1.3-3.5,1.5-3.9c0.3,0.6,1.5,3.5,1.5,3.9C16.5,18.1,13.4,18.1,13.4,15.8z M16.6,11.3h-3.2c-0.3,0-0.5-0.2-0.5-0.5
	c0-0.2,0.1-0.3,0.2-0.4c0-0.6-0.2-0.9-0.7-0.9c-1.5,0-1.5,0-1.5,0c-0.4,0.8-1.1,1.3-2,1.3c-0.8,0-1.4-0.4-1.8-1.3
	c-3.6,0-4.2,0-4.3,0V6.4c2.6,0,3.5,0,3.9,0v-1c0-0.3,0.2-0.5,0.5-0.5h1.3V4.3C8.4,4.2,8.3,4.1,8.3,4C6.7,4,5.8,4,5.4,4
	C5.2,4.3,4.9,4.4,4.6,4.4c-0.5,0-1-0.4-1-1c0-0.5,0.4-1,1-1c0.3,0,0.6,0.2,0.8,0.4c1.1,0,2.1,0,2.9,0C8.4,2.7,8.7,2.5,9,2.5
	c0.3,0,0.6,0.2,0.8,0.4c1.4,0,2.2,0,2.6,0c0.2-0.2,0.4-0.4,0.8-0.4c0.5,0,1,0.4,1,1c0,0.5-0.4,1-1,1c-0.3,0-0.6-0.2-0.7-0.4
	c-1.5,0-2.3,0-2.6,0C9.7,4.1,9.6,4.2,9.5,4.3v0.6h1.2c0.3,0,0.5,0.2,0.5,0.5l0,1c3.2,0,3.2,0,3.2,0c1.4,0,2.4,1,2.4,2.1
	c0,0.9,0,1.5,0,1.8c0.2,0.1,0.3,0.3,0.3,0.5C17.1,11.1,16.9,11.3,16.6,11.3z"/>
</svg>
